<?xml version="1.0" encoding="utf-8"?>
<!-- Generator: Adobe Illustrator 23.0.0, SVG Export Plug-In . SVG Version: 6.00 Build 0)  -->
<svg version="1.1" id="图层_1" xmlns="http://www.w3.org/2000/svg" xmlns:xlink="http://www.w3.org/1999/xlink" x="0px" y="0px"
	 viewBox="0 0 24 24" style="enable-background:new 0 0 24 24;" xml:space="preserve">
<style type="text/css">
	.st0{fill:#FF7900;}
</style>
<g>
	<path class="st0" d="M18.1,13.4c0-0.3-0.2-0.5-0.5-0.5h-11c-0.3,0-0.5,0.2-0.5,0.5c0,0.3,0.2,0.5,0.5,0.5h11
		C17.9,13.9,18.1,13.7,18.1,13.4z M7.3,9C7.1,8.9,6.8,9,6.7,9.2c-0.1,0.2,0,0.4,0.1,0.6l2.5,1.5c0.2,0.1,0.5,0.1,0.6-0.1l2.2-2.9
		l2.2,2.9c0.2,0.2,0.4,0.2,0.6,0.1l2.6-1.9c0.2-0.1,0.2-0.4,0.1-0.6c-0.1-0.2-0.4-0.2-0.6-0.1l0,0l-2.2,1.6l-2.3-3
		C12.3,7,12,7,11.8,7.2c0,0,0,0-0.1,0.1l-2.3,3.1L7.3,9z M7.8,15v2.7c0,0.3,0.2,0.5,0.5,0.5s0.5-0.2,0.5-0.5V15
		c0-0.3-0.2-0.5-0.5-0.5S7.8,14.8,7.8,15z M12.1,14.5c-0.3,0-0.5,0.2-0.5,0.5v1.8c0,0.3,0.2,0.5,0.5,0.5c0.3,0,0.5-0.2,0.5-0.5v-1.8
		C12.5,14.7,12.3,14.5,12.1,14.5z M15.4,15.9v0.9c0,0.3,0.2,0.5,0.5,0.5c0.3,0,0.5-0.2,0.5-0.5v-0.9c0-0.3-0.2-0.5-0.5-0.5
		C15.6,15.4,15.4,15.6,15.4,15.9z"/>
	<path class="st0" d="M8.3,18.4c-0.4,0-0.6-0.3-0.6-0.6V15c0-0.4,0.3-0.6,0.6-0.6s0.6,0.3,0.6,0.6v2.7C8.9,18.1,8.6,18.4,8.3,18.4z
		 M8.3,14.8C8.1,14.8,8,14.9,8,15v2.7C8,17.9,8.1,18,8.3,18s0.3-0.1,0.3-0.3V15C8.5,14.9,8.4,14.8,8.3,14.8z M15.8,17.4
		c-0.4,0-0.6-0.3-0.6-0.6v-0.9c0-0.4,0.3-0.6,0.6-0.6s0.6,0.3,0.6,0.6v0.9C16.5,17.1,16.2,17.4,15.8,17.4z M15.8,15.6
		c-0.1,0-0.3,0.1-0.3,0.3v0.9c0,0.1,0.1,0.3,0.3,0.3s0.3-0.1,0.3-0.3v-0.9C16.1,15.7,16,15.6,15.8,15.6z M12.1,17.4
		c-0.4,0-0.6-0.3-0.6-0.6v-1.8c0-0.4,0.3-0.6,0.6-0.6c0.4,0,0.6,0.3,0.6,0.6v1.8C12.7,17.1,12.4,17.4,12.1,17.4z M12.1,14.7
		c-0.1,0-0.3,0.1-0.3,0.3v1.8c0,0.1,0.1,0.3,0.3,0.3c0.1,0,0.3-0.1,0.3-0.3v-1.8C12.3,14.8,12.2,14.7,12.1,14.7z M17.7,14.1h-11
		c-0.4,0-0.6-0.3-0.6-0.6c0-0.4,0.3-0.6,0.6-0.6h11c0.4,0,0.6,0.3,0.6,0.6C18.3,13.8,18,14.1,17.7,14.1z M6.7,13.2
		c-0.1,0-0.3,0.1-0.3,0.3s0.1,0.3,0.3,0.3h11c0.1,0,0.3-0.1,0.3-0.3s-0.1-0.3-0.3-0.3H6.7z M9.6,11.6c-0.1,0-0.2,0-0.3-0.1L6.7,9.9
		C6.4,9.7,6.4,9.4,6.5,9.1c0.2-0.3,0.6-0.4,0.9-0.3l0,0l2,1.2l2.2-2.9c0,0,0.1-0.1,0.1-0.1c0.3-0.2,0.7-0.2,0.9,0.1l2.2,2.9l2.1-1.5
		c0.3-0.2,0.7-0.1,0.9,0.1C18,8.9,18,9.3,17.7,9.5l-2.6,1.9c-0.3,0.2-0.7,0.2-0.9-0.1l-2-2.7l-2,2.7C10,11.5,9.8,11.6,9.6,11.6z
		 M7.1,9.1C7,9.1,6.9,9.2,6.8,9.3c-0.1,0.1,0,0.3,0.1,0.3l2.5,1.5c0.1,0.1,0.3,0,0.4-0.1L12.1,8l2.3,3.1c0.1,0.1,0.3,0.1,0.4,0.1
		l2.6-1.9c0.1-0.1,0.1-0.3,0.1-0.4c-0.1-0.1-0.3-0.1-0.4-0.1l-2.4,1.8l-2.4-3.2c-0.1-0.1-0.3-0.1-0.4,0c0,0,0,0,0,0l-2.4,3.2
		L7.2,9.1C7.2,9.1,7.1,9.1,7.1,9.1z"/>
</g>
<g>
	<path class="st0" d="M6.3,21.1h11.8c1.6,0,3-1.3,3-3V6.2c0-1.6-1.3-3-3-3h-5.6l0,0c0,0.8,0.7,1.5,1.5,1.5h4.1
		c0.8,0,1.5,0.7,1.5,1.5v11.9c0,0.8-0.7,1.5-1.5,1.5H6.2c-0.8,0-1.5-0.7-1.5-1.5V6.2c0-0.8,0.7-1.5,1.5-1.5h5.6l0,0
		c0-0.8-0.7-1.5-1.5-1.5H6.2c-1.6,0-3,1.3-3,3v11.9C3.3,19.8,4.6,21.1,6.3,21.1z"/>
</g>
</svg>
