<?xml version="1.0" encoding="utf-8"?>
<!-- Generator: Adobe Illustrator 23.0.0, SVG Export Plug-In . SVG Version: 6.00 Build 0)  -->
<svg version="1.1" id="图层_1" xmlns="http://www.w3.org/2000/svg" xmlns:xlink="http://www.w3.org/1999/xlink" x="0px" y="0px"
	 viewBox="0 0 24 24" style="enable-background:new 0 0 24 24;" xml:space="preserve">
<style type="text/css">
	.st0{fill:#FF7900;}
</style>
<g>
	<g>
		<path class="st0" d="M10.8,12c-0.3-0.4-0.7-0.7-1.1-0.8V6.4c0-0.1-0.1-0.2-0.2-0.2H8.4c-0.1,0-0.2,0.1-0.2,0.2v4.8
			c-0.5,0.2-0.8,0.4-1.1,0.8c-0.3,0.4-0.4,0.8-0.4,1.3s0.1,1,0.4,1.3c0.3,0.4,0.7,0.7,1.1,0.8v1.7c0,0.1,0.1,0.2,0.2,0.2h1.1
			c0.1,0,0.2-0.1,0.2-0.2v-1.7c0.5-0.2,0.8-0.4,1.1-0.8c0.3-0.4,0.4-0.8,0.4-1.3S11,12.4,10.8,12z M9.6,13.8L9.6,13.8L9.4,14
			l-0.2,0.1l-0.2,0H8.8L8.5,14l-0.2-0.2l-0.1-0.1c-0.1-0.1-0.1-0.2-0.1-0.4c0-0.1,0-0.3,0.1-0.4c0,0,0,0,0,0l0,0l0.1-0.2l0.2-0.1
			l0.2,0l0.3,0l0.2,0.1l0.2,0.2L9.6,13c0.1,0.1,0.1,0.2,0.1,0.4C9.7,13.5,9.7,13.6,9.6,13.8z"/>
		<path class="st0" d="M16.9,8.9c-0.3-0.4-0.7-0.7-1.1-0.8V6.4c0-0.1-0.1-0.2-0.2-0.2h-1c-0.1,0-0.2,0.1-0.2,0.2v1.7
			c-0.5,0.2-0.8,0.4-1.1,0.8c-0.3,0.4-0.4,0.8-0.4,1.3c0,0.5,0.1,1,0.4,1.3c0.3,0.4,0.7,0.7,1.1,0.8v4.8c0,0.1,0.1,0.2,0.2,0.2h1
			c0.1,0,0.2-0.1,0.2-0.2v-4.8c0.5-0.2,0.8-0.4,1.1-0.8c0.3-0.4,0.4-0.8,0.4-1.3C17.3,9.7,17.2,9.3,16.9,8.9z M15.7,10.6L15.7,10.6
			l-0.2,0.2L15.3,11l-0.2,0h-0.3l-0.2-0.1l-0.2-0.2l-0.1-0.1c-0.1-0.1-0.1-0.2-0.1-0.4s0-0.3,0.1-0.4c0,0,0,0,0,0l0,0l0.1-0.2
			l0.2-0.1l0.2,0l0.3,0l0.2,0.1l0.2,0.2l0.1,0.1c0.1,0.1,0.1,0.2,0.1,0.4S15.8,10.5,15.7,10.6z"/>
	</g>
	<path class="st0" d="M17.9,3.1H6.1c-1.6,0-3,1.3-3,3v11.9c0,1.6,1.3,3,3,3h5.6v0c0-0.8-0.7-1.5-1.5-1.5H6.1c-0.8,0-1.5-0.7-1.5-1.5
		V6.1c0-0.8,0.7-1.5,1.5-1.5h11.9c0.8,0,1.5,0.7,1.5,1.5v11.9c0,0.8-0.7,1.5-1.5,1.5h-5.6v0c0,0.8,0.7,1.5,1.5,1.5h4.1
		c1.6,0,3-1.3,3-3V6.1C20.9,4.4,19.6,3.1,17.9,3.1z"/>
</g>
</svg>
