<?xml version="1.0" encoding="utf-8"?>
<!-- Generator: Adobe Illustrator 23.0.0, SVG Export Plug-In . SVG Version: 6.00 Build 0)  -->
<svg version="1.1" id="图层_1" xmlns="http://www.w3.org/2000/svg" xmlns:xlink="http://www.w3.org/1999/xlink" x="0px" y="0px"
	 viewBox="0 0 24 24" style="enable-background:new 0 0 24 24;" xml:space="preserve">
<style type="text/css">
	.st0{fill:#595959;}
</style>
<g>
	<path class="st0" d="M21.2,12.4V5.3c0-1-0.8-1.8-1.8-1.8H8.1c-1,0-1.8,0.8-1.8,1.8v0.8h1.6V5.3C7.8,5.2,7.9,5,8.1,5h11.3
		c0.1,0,0.2,0.1,0.2,0.2v7.1c0,0.1-0.1,0.2-0.2,0.2h-0.8v1.6h0.8C20.3,14.2,21.2,13.4,21.2,12.4z"/>
	<path class="st0" d="M12.9,18.4h3c1,0,1.8-0.8,1.8-1.8V8.6c0-1-0.8-1.8-1.8-1.8H4.7c-1,0-1.8,0.8-1.8,1.8v7.9c0,1,0.8,1.8,1.8,1.8
		h3.1l0,0L9.3,20c0.2,0.3,0.7,0.5,1.1,0.5s0.8-0.2,1.1-0.5L12.9,18.4z M10.4,18.8L10.4,18.8l-1.9-2.1H4.7c-0.1,0-0.2-0.1-0.2-0.2
		V8.6c0-0.1,0.1-0.2,0.2-0.2H16c0.1,0,0.2,0.1,0.2,0.2v7.9c0,0.1-0.1,0.2-0.2,0.2h-3.7L10.4,18.8z"/>
	<path class="st0" d="M8.3,10.1H6.6v1.6h3.3C9.9,10.8,9.2,10.1,8.3,10.1z"/>
	<path class="st0" d="M12.3,11.7H14v-1.6h-3.4C10.6,11,11.4,11.7,12.3,11.7z"/>
	<rect x="6.6" y="12.9" class="st0" width="7.4" height="1.6"/>
</g>
</svg>
