<?xml version="1.0" encoding="utf-8"?>
<!-- Generator: Adobe Illustrator 23.0.0, SVG Export Plug-In . SVG Version: 6.00 Build 0)  -->
<svg version="1.1" id="图层_1" xmlns="http://www.w3.org/2000/svg" xmlns:xlink="http://www.w3.org/1999/xlink" x="0px" y="0px"
	 viewBox="0 0 24 24" style="enable-background:new 0 0 24 24;" xml:space="preserve">
<style type="text/css">
	.st0{fill:#FF7900;}
</style>
<path class="st0" d="M21,11c-0.1-0.2-0.3-0.4-0.7-0.4h-1.9V9.1c0-0.8-0.7-1.5-1.5-1.5h-5.6L8.9,5.3c0,0-0.1,0-0.1,0H4.4
	C3.6,5.3,2.9,6,2.9,6.8v10.4c0,0.8,0.7,1.5,1.5,1.5h6.3l0,0c0-0.8-0.7-1.5-1.5-1.5H4.9L7,12h12.5l-2.1,5.2h-6l0,0
	c0,0.8,0.7,1.5,1.5,1.5h4c0.1,0,0.8-0.1,1.1-0.2c0.4-0.2,0.6-0.6,0.8-1L21,12C21,11.9,21.2,11.4,21,11z M16.9,10.6H7.2
	c-0.1,0-0.6,0-0.9,0.2c-0.4,0.3-0.6,0.7-0.6,0.8l-1.2,3V6.8h3.9l2.4,2.3h6.2V10.6z"/>
</svg>
