<?xml version="1.0" encoding="utf-8"?>
<!-- Generator: Adobe Illustrator 23.0.0, SVG Export Plug-In . SVG Version: 6.00 Build 0)  -->
<svg version="1.1" id="图层_1" xmlns="http://www.w3.org/2000/svg" xmlns:xlink="http://www.w3.org/1999/xlink" x="0px" y="0px"
	 viewBox="0 0 24 24" style="enable-background:new 0 0 24 24;" xml:space="preserve">
<style type="text/css">
	.st0{fill:#FF7900;}
</style>
<path class="st0" d="M3.8,13l-2.1,2.3l-1.1-1.1c0,0,1.7-1.7,2.7-2.6C5.4,9.3,7.7,7,9.9,4.8c1.3-1.3,2.6-1.2,4,0.1
	c0.8,0.7,1.8,1.7,2.4,2.5c0.4,0.6,0.4,1.2,0,2.3c0,0-1.7-1.7-2.9-2.9c-1.4-1.4-1.8-1.8-3.2-0.4C8.7,8,5.1,11.6,5.1,11.6v9.2H3.8V13z
	"/>
<path class="st0" d="M8.7,15.9c0-0.9,0.4-1.4,1.3-1.4c1.3,0,2.5,0,3.8,0c0.9,0,1.1,0.5,1.1,1.3c0,1.5,0,5,0,5l-1.5,0
	c0,0,0-2.9,0-4.1c0-0.6,0-0.8-0.6-0.8c-3.4,0-2.8-0.4-2.9,2.6c0,0.6,0,2.3,0,2.3l-1.3,0C8.7,20.8,8.7,16.6,8.7,15.9z"/>
<path class="st0" d="M18.1,9.2c1.6,1.6,3.3,3.2,5,5l-1.1,1.1l-2.1-2.1l0,7.7l-1.5,0V12c0,0-0.6-0.8-0.8-1.3
	C17.4,10.2,17.5,9.5,18.1,9.2z"/>
</svg>
