<?xml version="1.0" encoding="utf-8"?>
<!-- Generator: Adobe Illustrator 23.0.0, SVG Export Plug-In . SVG Version: 6.00 Build 0)  -->
<svg version="1.1" id="图层_1" xmlns="http://www.w3.org/2000/svg" xmlns:xlink="http://www.w3.org/1999/xlink" x="0px" y="0px"
	 viewBox="0 0 24 24" style="enable-background:new 0 0 24 24;" xml:space="preserve">
<style type="text/css">
	.st0{fill:#FF7900;}
</style>
<g>
	<path class="st0" d="M10.4,13.4c-0.3,0-0.6,0-0.9-0.1c-1.9-0.3-3.4-1.5-3.8-3C5,8,5.7,5.7,7.7,4.1c1.7-1.5,4.6-2.1,6.8-1.5
		c1.5,0.4,2.5,1.2,3.1,2.3c0.9,1.6,0.5,3.4,0.2,4.4c-0.6,1.8-2.9,2.7-3.1,2.9c-0.2,0.1-0.4,0.1-0.6,0C12.9,13.1,11.6,13.4,10.4,13.4
		z M12.6,3.8c-1.4,0-3,0.5-4,1.4C7.6,6.1,6.4,7.6,7,10c0.2,0.9,1.3,1.7,2.6,1.9c1.8,0.3,3.4-0.4,4.4-2c0.3-0.4,0.4-1.3,0.2-2
		c-0.1-0.6-0.4-1.1-0.8-1.3c-0.4-0.2-1-0.3-1.5-0.1c-0.5,0.2-0.9,0.5-1.1,0.8c-0.3,0.7,0.1,1.2,0.4,1.4c0.3,0.2,0.6,0,0.8-0.4
		c0.2-0.3,0.6-0.5,1-0.3c0.3,0.2,0.5,0.6,0.3,1c-0.7,1.3-1.9,1.4-2.7,1c-1-0.5-1.7-1.9-1-3.3c0.3-0.7,1-1.3,1.9-1.5
		C12.5,5,13.5,5,14.2,5.5c0.7,0.4,1.2,1.2,1.4,2.2c0.2,0.8,0.2,1.5,0,2.2c0.3-0.3,0.6-0.6,0.7-0.9c0.2-0.7,0.5-2.2-0.1-3.3
		C15.9,4.9,15.1,4.3,14,4C13.6,3.9,13.1,3.8,12.6,3.8z"/>
	<path class="st0" d="M13.1,22.3c-0.3,0-0.6-0.2-0.7-0.5L10,15.2c-0.1-0.2,0-0.5,0.1-0.7c0.1-0.2,0.4-0.3,0.6-0.3
		c0.6,0,1.6,0.1,1.9,0c0.2,0,1-0.4,1.7-0.8c0.2-0.1,0.5-0.1,0.7,0c0.2,0.1,0.4,0.4,0.4,0.6v7.2c0,0.3-0.2,0.6-0.5,0.7l-1.6,0.4
		C13.3,22.3,13.2,22.3,13.1,22.3z M11.7,15.7l1.9,5.1l0.4-0.1v-5.4c-0.4,0.2-0.8,0.4-1.1,0.4C12.6,15.7,12.2,15.7,11.7,15.7z"/>
</g>
</svg>
