<?xml version="1.0" encoding="utf-8"?>
<!-- Generator: Adobe Illustrator 23.0.0, SVG Export Plug-In . SVG Version: 6.00 Build 0)  -->
<svg version="1.1" id="图层_1" xmlns="http://www.w3.org/2000/svg" xmlns:xlink="http://www.w3.org/1999/xlink" x="0px" y="0px"
	 viewBox="0 0 24 24" style="enable-background:new 0 0 24 24;" xml:space="preserve">
<style type="text/css">
	.st0{fill:#595959;}
</style>
<path class="st0" d="M19.6,4.3H4.4c-1,0-1.7,0.8-1.7,1.7v8.5c0,1,0.8,1.7,1.7,1.7h6.9v2.3H9c-0.9,0-1.6,0.7-1.6,1.6h9.2
	c0-0.9-0.7-1.6-1.6-1.6h-2.2v-2.3h6.9c1,0,1.7-0.8,1.7-1.7V6C21.3,5.1,20.5,4.3,19.6,4.3z M19.8,14.5c0,0.1-0.1,0.2-0.2,0.2H4.4
	c-0.1,0-0.2-0.1-0.2-0.2V6c0-0.1,0.1-0.2,0.2-0.2h15.2c0.1,0,0.2,0.1,0.2,0.2V14.5z"/>
<g>
	<g>
		<path class="st0" d="M6.2,12.9V8.3h0.9l1.1,3.3c0.1,0.3,0.2,0.5,0.2,0.7c0.1-0.2,0.1-0.4,0.2-0.7l1.1-3.2h0.8v4.6h-0.6V9l-1.3,3.9
			H8.2L6.8,9v4H6.2z"/>
		<path class="st0" d="M10.8,13H10V9.8L8.8,13H8.1L7,9.7V13H6.1V8.2h1.1l1.1,3.4c0,0.1,0.1,0.2,0.1,0.3c0-0.1,0.1-0.2,0.1-0.4
			l1.1-3.3h1V13z M10.2,12.8h0.3V8.4h-0.3V12.8z M8.3,12.8h0.4l1.5-4.4H9.9l-1.1,3.1c-0.1,0.3-0.2,0.6-0.2,0.7l-0.1,0.4l-0.1-0.4
			c0-0.2-0.1-0.4-0.2-0.7L7.1,8.4H6.8L8.3,12.8z M6.4,12.8h0.3V8.4H6.4V12.8z"/>
	</g>
	<g>
		<path class="st0" d="M11.4,11.9l0.6-0.1c0,0.2,0.1,0.4,0.3,0.5s0.3,0.2,0.6,0.2c0.3,0,0.5-0.1,0.6-0.2c0.1-0.1,0.2-0.2,0.2-0.4
			c0-0.1-0.1-0.2-0.2-0.3c-0.1-0.1-0.3-0.1-0.6-0.2c-0.4-0.1-0.7-0.2-0.9-0.3c-0.2-0.1-0.3-0.2-0.4-0.3c-0.1-0.1-0.1-0.3-0.1-0.5
			c0-0.1,0-0.3,0.1-0.4s0.2-0.2,0.3-0.3c0.1-0.1,0.2-0.1,0.4-0.2s0.3-0.1,0.5-0.1c0.3,0,0.5,0,0.7,0.1c0.2,0.1,0.3,0.2,0.4,0.3
			s0.2,0.3,0.2,0.5l-0.6,0.1c0-0.2-0.1-0.3-0.2-0.4C13.1,10,13,9.9,12.7,9.9c-0.3,0-0.4,0-0.6,0.1c-0.1,0.1-0.2,0.2-0.2,0.3
			c0,0.1,0,0.1,0.1,0.2c0,0.1,0.1,0.1,0.2,0.2c0.1,0,0.2,0.1,0.5,0.1c0.4,0.1,0.7,0.2,0.8,0.3s0.3,0.2,0.4,0.3s0.1,0.3,0.1,0.5
			c0,0.2-0.1,0.4-0.2,0.5c-0.1,0.2-0.3,0.3-0.5,0.4c-0.2,0.1-0.4,0.1-0.7,0.1c-0.4,0-0.8-0.1-1-0.3C11.6,12.5,11.4,12.3,11.4,11.9z"
			/>
		<path class="st0" d="M12.8,13.1c-0.5,0-0.8-0.1-1.1-0.3c-0.3-0.2-0.4-0.5-0.5-0.9l0-0.1l0.8-0.1l0,0.1c0,0.2,0.1,0.3,0.2,0.4
			c0.1,0.1,0.3,0.2,0.5,0.2c0.2,0,0.4,0,0.5-0.1c0.1-0.1,0.1-0.2,0.1-0.3c0-0.1,0-0.1-0.1-0.2c0,0-0.2-0.1-0.5-0.2
			c-0.4-0.1-0.7-0.2-0.9-0.3c-0.2-0.1-0.3-0.2-0.4-0.4c-0.1-0.2-0.1-0.3-0.1-0.5c0-0.2,0-0.3,0.1-0.5c0.1-0.1,0.2-0.3,0.3-0.4
			c0.1-0.1,0.2-0.1,0.4-0.2c0.2,0,0.3-0.1,0.5-0.1c0.3,0,0.5,0,0.7,0.1c0.2,0.1,0.4,0.2,0.5,0.4c0.1,0.1,0.2,0.3,0.2,0.6l0,0.1
			l-0.8,0.1l0-0.1c0-0.1-0.1-0.2-0.2-0.3c-0.1-0.1-0.2-0.1-0.4-0.1c-0.3,0-0.4,0.1-0.5,0.1c-0.1,0.1-0.1,0.2-0.1,0.2
			c0,0,0,0.1,0,0.1c0,0,0.1,0.1,0.2,0.1c0.1,0,0.3,0.1,0.5,0.1c0.4,0.1,0.7,0.2,0.9,0.3c0.2,0.1,0.3,0.2,0.4,0.3
			c0.1,0.2,0.2,0.3,0.2,0.6c0,0.2-0.1,0.4-0.2,0.6c-0.1,0.2-0.3,0.3-0.5,0.4C13.3,13.1,13.1,13.1,12.8,13.1z M11.5,12
			c0.1,0.3,0.2,0.5,0.4,0.6c0.2,0.2,0.5,0.2,0.9,0.2c0.2,0,0.5,0,0.7-0.1c0.2-0.1,0.3-0.2,0.4-0.3c0.1-0.1,0.1-0.3,0.1-0.5
			c0-0.2,0-0.3-0.1-0.4c-0.1-0.1-0.2-0.2-0.3-0.3c-0.2-0.1-0.4-0.2-0.8-0.3c-0.3-0.1-0.5-0.1-0.5-0.1c-0.1,0-0.2-0.1-0.3-0.2
			c-0.1-0.1-0.1-0.2-0.1-0.3c0-0.2,0.1-0.3,0.2-0.4c0.1-0.1,0.3-0.2,0.6-0.2c0.2,0,0.4,0.1,0.6,0.2c0.1,0.1,0.2,0.2,0.2,0.4l0.3,0
			c0-0.1-0.1-0.3-0.1-0.3c-0.1-0.1-0.2-0.2-0.4-0.3c-0.2-0.1-0.4-0.1-0.6-0.1c-0.2,0-0.3,0-0.5,0.1c-0.1,0-0.2,0.1-0.3,0.1
			c-0.1,0.1-0.2,0.2-0.2,0.3c-0.1,0.1-0.1,0.2-0.1,0.4c0,0.1,0,0.3,0.1,0.4c0.1,0.1,0.2,0.2,0.3,0.3c0.2,0.1,0.4,0.2,0.8,0.3
			c0.4,0.1,0.6,0.2,0.6,0.2c0.1,0.1,0.2,0.2,0.2,0.4c0,0.2-0.1,0.3-0.2,0.5c-0.1,0.1-0.4,0.2-0.7,0.2c-0.3,0-0.5-0.1-0.7-0.2
			c-0.1-0.1-0.2-0.3-0.3-0.5L11.5,12z"/>
	</g>
	<g>
		<path class="st0" d="M17,12.5c-0.2,0.2-0.4,0.3-0.6,0.4C16.2,13,16,13,15.8,13c-0.4,0-0.7-0.1-0.9-0.3c-0.2-0.2-0.3-0.4-0.3-0.7
			c0-0.2,0-0.3,0.1-0.5c0.1-0.1,0.2-0.2,0.3-0.3c0.1-0.1,0.3-0.1,0.4-0.2c0.1,0,0.3-0.1,0.5-0.1c0.5-0.1,0.8-0.1,1-0.2
			c0-0.1,0-0.1,0-0.1c0-0.2-0.1-0.4-0.2-0.5C16.7,10,16.5,10,16.2,10c-0.3,0-0.5,0-0.6,0.1s-0.2,0.3-0.3,0.5l-0.6-0.1
			c0.1-0.2,0.1-0.4,0.3-0.6c0.1-0.1,0.3-0.3,0.5-0.3s0.5-0.1,0.8-0.1c0.3,0,0.5,0,0.7,0.1c0.2,0.1,0.3,0.2,0.4,0.3
			c0.1,0.1,0.1,0.2,0.2,0.4c0,0.1,0,0.3,0,0.5v0.8c0,0.5,0,0.9,0,1c0,0.1,0.1,0.3,0.1,0.4h-0.6C17.1,12.8,17,12.7,17,12.5z M17,11.2
			c-0.2,0.1-0.5,0.2-0.9,0.2c-0.2,0-0.4,0.1-0.5,0.1c-0.1,0-0.2,0.1-0.2,0.2s-0.1,0.2-0.1,0.3c0,0.2,0.1,0.3,0.2,0.4
			s0.3,0.2,0.5,0.2c0.2,0,0.4,0,0.6-0.1c0.2-0.1,0.3-0.2,0.4-0.4c0.1-0.1,0.1-0.3,0.1-0.6V11.2z"/>
		<path class="st0" d="M15.8,13.1c-0.4,0-0.7-0.1-0.9-0.3c-0.2-0.2-0.3-0.5-0.3-0.8c0-0.2,0-0.4,0.1-0.5s0.2-0.3,0.3-0.4
			c0.1-0.1,0.3-0.2,0.4-0.2c0.1,0,0.3-0.1,0.5-0.1c0.4,0,0.7-0.1,0.9-0.2c0,0,0,0,0-0.1c0-0.2,0-0.3-0.1-0.4
			c-0.1-0.1-0.3-0.2-0.6-0.2c-0.2,0-0.4,0-0.5,0.1c-0.1,0.1-0.2,0.2-0.2,0.4l0,0.1l-0.8-0.1l0-0.1c0.1-0.3,0.1-0.5,0.3-0.6
			c0.1-0.2,0.3-0.3,0.6-0.4c0.2-0.1,0.5-0.1,0.8-0.1c0.3,0,0.5,0,0.7,0.1c0.2,0.1,0.3,0.2,0.4,0.3c0.1,0.1,0.2,0.3,0.2,0.4
			c0,0.1,0,0.3,0,0.6v0.8c0,0.5,0,0.9,0,1c0,0.1,0.1,0.2,0.1,0.4l0.1,0.2h-0.9l0-0.1c0-0.1-0.1-0.2-0.1-0.2
			c-0.2,0.1-0.3,0.2-0.5,0.3C16.3,13.1,16,13.1,15.8,13.1z M16.2,9.8c0.3,0,0.6,0.1,0.7,0.2c0.1,0.1,0.2,0.3,0.2,0.6
			c0,0,0,0.1,0,0.2l0,0.1l-0.1,0c-0.2,0.1-0.6,0.1-1,0.2c-0.2,0-0.4,0.1-0.5,0.1c-0.1,0-0.3,0.1-0.4,0.2c-0.1,0.1-0.2,0.2-0.3,0.3
			c-0.1,0.1-0.1,0.2-0.1,0.4c0,0.2,0.1,0.4,0.3,0.6c0.2,0.2,0.4,0.2,0.8,0.2c0.2,0,0.4,0,0.6-0.1c0.2-0.1,0.4-0.2,0.6-0.4l0.2-0.2
			l0,0.2c0,0.1,0,0.2,0.1,0.3h0.3c0-0.1-0.1-0.2-0.1-0.3c0-0.1,0-0.5,0-1v-0.8c0-0.2,0-0.4,0-0.5c0-0.1-0.1-0.2-0.2-0.3
			c-0.1-0.1-0.2-0.2-0.3-0.2c-0.2-0.1-0.4-0.1-0.7-0.1c-0.3,0-0.5,0-0.7,0.1c-0.2,0.1-0.3,0.2-0.4,0.3c-0.1,0.1-0.1,0.2-0.2,0.4
			l0.3,0c0.1-0.2,0.2-0.4,0.3-0.5C15.7,9.9,15.9,9.8,16.2,9.8z M15.9,12.7c-0.3,0-0.4-0.1-0.6-0.2c-0.1-0.1-0.2-0.3-0.2-0.5
			c0-0.1,0-0.2,0.1-0.3c0.1-0.1,0.2-0.2,0.3-0.2c0.1,0,0.3-0.1,0.5-0.1c0.4-0.1,0.7-0.1,0.9-0.2l0.2-0.1v0.4c0,0.3,0,0.5-0.1,0.6
			c-0.1,0.2-0.2,0.3-0.4,0.4C16.4,12.6,16.2,12.7,15.9,12.7z M16.9,11.4c-0.2,0.1-0.5,0.1-0.8,0.2c-0.3,0-0.4,0.1-0.5,0.1
			c-0.1,0-0.1,0.1-0.2,0.1s-0.1,0.1-0.1,0.2c0,0.1,0,0.2,0.1,0.3c0.1,0.1,0.2,0.1,0.4,0.1c0.2,0,0.4,0,0.5-0.1
			c0.1-0.1,0.3-0.2,0.3-0.3C16.8,11.8,16.9,11.7,16.9,11.4L16.9,11.4z"/>
	</g>
</g>
</svg>
