<?xml version="1.0" encoding="utf-8"?>
<!-- Generator: Adobe Illustrator 23.0.0, SVG Export Plug-In . SVG Version: 6.00 Build 0)  -->
<svg version="1.1" id="图层_1" xmlns="http://www.w3.org/2000/svg" xmlns:xlink="http://www.w3.org/1999/xlink" x="0px" y="0px"
	 viewBox="0 0 24 24" style="enable-background:new 0 0 24 24;" xml:space="preserve">
<style type="text/css">
	.st0{fill:#FF7900;}
</style>
<path class="st0" d="M16.9,12.2l-2-1.1V8.7c0-0.5-0.3-0.9-0.7-1.1l-1.6-0.9c-0.4-0.2-0.9-0.2-1.3,0L9.7,7.5C9.3,7.8,9.1,8.2,9.1,8.7
	v2.4l-2,1.1c-0.4,0.3-0.6,0.7-0.7,1.1v2c0,0.5,0.3,0.9,0.7,1.1l1.6,0.9c0.4,0.2,0.9,0.2,1.3,0l2-1.1l2,1.1c0.4,0.2,0.9,0.2,1.3,0
	l1.6-0.9c0.4-0.3,0.6-0.7,0.7-1.1v-2C17.5,12.9,17.3,12.4,16.9,12.2z M11.2,15.2L9.8,16c-0.2,0.1-0.4,0.1-0.5,0l-1.2-0.7
	c-0.1-0.1-0.2-0.3-0.3-0.4v-1.5c0-0.2,0.1-0.3,0.3-0.4l1.5-0.8l1.7,1V15.2z M12,11.7l-1.7-1V9c0-0.2,0.1-0.3,0.2-0.4l1.2-0.7
	c0.2-0.1,0.4-0.1,0.5,0l1.2,0.7c0.1,0.1,0.2,0.3,0.3,0.4v1.8L12,11.7z M16.1,14.9c0,0.2-0.1,0.3-0.3,0.4L14.6,16
	c-0.2,0.1-0.4,0.1-0.5,0l-1.5-0.8v-2.1l1.8-1l1.4,0.8c0.1,0.1,0.2,0.3,0.3,0.4V14.9z"/>
<path class="st0" d="M20.2,6L17,4.3l0,0c-0.4,0.7-0.2,1.6,0.6,2l1.6,0.9c0.3,0.2,0.5,0.6,0.6,0.9v7.8c0,0.4-0.2,0.7-0.6,0.9
	l-6.6,3.7c-0.4,0.2-0.8,0.2-1.1,0l-6.6-3.7c-0.3-0.2-0.5-0.6-0.6-0.9V8.1c0-0.4,0.2-0.7,0.6-0.9l6.6-3.7c0.2-0.1,0.4-0.1,0.6-0.1
	c0.2,0,0.4,0,0.6,0.1l3,1.7l0,0c0.4-0.7,0.2-1.6-0.6-2l-1.9-1.1c-0.7-0.3-1.5-0.3-2.2,0L3.8,6C3.2,6.4,2.8,7.1,2.7,7.8v8.3
	c0,0.8,0.5,1.4,1.1,1.8l7.1,3.9c0.7,0.3,1.5,0.3,2.2,0l7.1-3.9c0.6-0.4,1.1-1.1,1.1-1.8V7.8C21.2,7.1,20.8,6.4,20.2,6z"/>
</svg>
