<?xml version="1.0" encoding="utf-8"?>
<!-- Generator: Adobe Illustrator 23.0.0, SVG Export Plug-In . SVG Version: 6.00 Build 0)  -->
<svg version="1.1" id="图层_1" xmlns="http://www.w3.org/2000/svg" xmlns:xlink="http://www.w3.org/1999/xlink" x="0px" y="0px"
	 viewBox="0 0 24 24" style="enable-background:new 0 0 24 24;" xml:space="preserve">
<style type="text/css">
	.st0{fill:#FF7900;}
</style>
<path class="st0" d="M20.9,8.2c0-0.3-0.1-0.7-0.1-1c0-0.5-0.2-0.8-0.7-1c-0.4-0.2-0.8-0.1-1.2,0.3c-0.6,0.5-1.1,1.1-1.7,1.7
	c-0.6,0.6-1,0.1-1.2-0.1c-0.2-0.2-0.4-0.4-0.4-0.7c0-0.2,0.1-0.4,0.3-0.5c0.5-0.5,1.1-1.1,1.8-1.8C17.9,4.8,18,4.3,17.9,4
	c-0.1-0.3-0.4-0.5-0.7-0.6l-0.1,0C16.2,3.2,15.3,3,14.4,3c-0.5,0-1,0.1-1.5,0.2C9.9,4,8.3,6.7,8.8,9.7c0.1,0.8,0.1,1.4-0.6,2
	C6.7,13.1,5.4,14.5,4,16l0,0c-0.9,0.9-1.2,2-0.8,3.1c0.3,1,1,1.6,2,1.8c1.1,0.2,2.1-0.1,3-1l0.6-0.6c1.1-1.1,2.2-2.2,3.3-3.3
	c0.6-0.6,1.3-1.3,2.4-0.9c0.1,0.1,0.3,0.1,0.5,0.1c0.1,0,0.2,0,0.3,0c3,0.1,5.2-1.8,5.7-4.7C21.1,9.8,21,9,20.9,8.2z M18.4,12.3
	c-0.8,1-2,1.4-3.2,1.3c-0.3,0-0.6-0.1-0.9-0.1c-0.4-0.1-0.9-0.1-1.4-0.2c-0.2,0-0.5,0.1-0.6,0.2c-0.7,0.7-1.4,1.4-2.1,2
	c-1,1-2,2-3.1,3c-0.3,0.3-0.7,0.5-1.2,0.6c0,0-0.1,0-0.1,0c-0.4,0-0.8-0.3-0.9-0.5c-0.2-0.3-0.1-0.8,0-1.2c0.1-0.2,0.3-0.4,0.4-0.6
	c0.1-0.1,0.1-0.2,0.2-0.2c1.6-1.7,3.2-3.3,4.9-4.9c0.3-0.2,0.3-0.5,0.3-0.9c0-0.2,0-0.4-0.1-0.6c-0.1-0.8-0.2-1.7-0.1-2.5
	c0.1-1,0.7-1.9,1.6-2.6c1-0.7,2.2-0.8,3.3-0.5l0.3,0.1l-0.2,0.2c-0.1,0.1-0.2,0.2-0.3,0.3c-0.2,0.2-0.4,0.4-0.7,0.6
	c-0.5,0.4-0.6,0.9-0.5,1.6c0.3,1.6,1.8,2.7,3.4,2.5c0.2,0,0.4-0.1,0.5-0.3c0.2-0.3,0.5-0.6,0.8-0.9l0.5-0.7l0.1,0.3
	C19.5,9.9,19.2,11.3,18.4,12.3z"/>
</svg>
