<svg xmlns="http://www.w3.org/2000/svg" width="145" height="33.407" viewBox="0 0 145 33.407">
  <g id="组_27660" data-name="组 27660" transform="translate(-366.856 -204.144)">
    <path id="路径_27266" data-name="路径 27266" d="M937.629,211.556h1.422a15.191,15.191,0,0,1-.738,4.009h-1.423a15.2,15.2,0,0,0,.738-4.009m8.643.551a13.367,13.367,0,0,0,.391,3.458h1.29a13.394,13.394,0,0,1-.391-3.458Zm-4.754,3.458h1.29a13.356,13.356,0,0,0,.391-3.458h-1.29a13.356,13.356,0,0,1-.391,3.458m3.83-4.119v4.119h-1.333v-4.119h-1.681a.58.58,0,0,1-.58-.58v-3.953a.58.58,0,0,1,.58-.58h1.458l.257-.856h-2.992v6.029a21.316,21.316,0,0,1-.243,4.059h-1.333a21.316,21.316,0,0,0,.243-4.059v-5.815c0-1.024.419-1.547,1.547-1.547h6.792a3.857,3.857,0,0,1-.538,1.111.526.526,0,0,1-.431.222h-1.713l-.257.856h1.858a.58.58,0,0,1,.58.58v3.953a.58.58,0,0,1-.58.58Zm-2.456-3.059h3.532v-.915h-3.532Zm0,1.921h3.532v-.984h-3.532Zm-5.681-5.608.437,2.353h1.4l-.438-2.353Zm0,3.428.437,2.353h1.4l-.438-2.353Z" transform="translate(-436.206 0)" fill="#606060"/>
    <path id="路径_27267" data-name="路径 27267" d="M654.687,204.572H650.2a.7.7,0,0,0-.695.695v9.174a.7.7,0,0,0,.695.7h4.491a.7.7,0,0,0,.695-.7v-9.174a.7.7,0,0,0-.695-.695M654,213.757H650.88v-3.521H654Zm0-4.9H650.88v-2.9H654Zm-5.928.09a10.652,10.652,0,0,1,.7,4.641.7.7,0,0,1-.695.694h-1.01a.528.528,0,0,1-.432-.222,4.023,4.023,0,0,1-.568-1.168h1.3c0-2.772-.827-3.629-1.164-3.863a.1.1,0,0,1,0-.16c.316-.221,1.055-.987,1.151-3.344h-1.913v10.041h-1.38V204.839a.694.694,0,0,1,.694-.695h3.307a.693.693,0,0,1,.694.709,10.061,10.061,0,0,1-.687,4.092" transform="translate(-212.129 0)" fill="#606060"/>
    <path id="路径_27268" data-name="路径 27268" d="M749.872,207.772h-1.62a11.3,11.3,0,0,0,.881-3.072h1.62a11.285,11.285,0,0,1-.881,3.072m-5.818,0a11.3,11.3,0,0,1-.881-3.072h-1.62a11.284,11.284,0,0,0,.881,3.072Zm5.2,6.414a.353.353,0,0,1-.353-.352v-3.648h2.705v-1.38h-4.695v-4.66h-1.523v4.66h-4.746v1.38H743.2a7.38,7.38,0,0,1-2.367,4.729c-.148.14-.3.268-.441.389-.226.19-.054.262.094.262h1.9a9.043,9.043,0,0,0,2.351-5.381h2.641V213.9a1.664,1.664,0,0,0,1.664,1.664h2.168a.528.528,0,0,0,.432-.222,4,4,0,0,0,.562-1.158Z" transform="translate(-285.76 -0.001)" fill="#606060"/>
    <path id="路径_27269" data-name="路径 27269" d="M845.8,214.186a.352.352,0,0,1-.353-.352v-1.15h3.519a.7.7,0,0,0,.694-.695v-5.816a.694.694,0,0,0-.694-.695h-3.519v-1.332h-1.523v1.332h-3.373a.7.7,0,0,0-.695.695v5.816a.7.7,0,0,0,.695.695h3.373V213.9a1.664,1.664,0,0,0,1.664,1.664h4.226a.527.527,0,0,0,.431-.222,3.988,3.988,0,0,0,.562-1.158Zm2.567-2.8h-2.919v-1.763h2.919Zm0-2.971h-2.919v-1.647h2.919Zm-7.216-1.647h2.774v1.647h-2.774Zm0,2.855h2.774v1.763h-2.774Z" transform="translate(-361.95 -0.001)" fill="#606060"/>
    <path id="路径_27270" data-name="路径 27270" d="M921.468,272.232v13.225l-6.476-6.933-6.475,6.933V272.232h-2.765v17.175h1.9a1.766,1.766,0,0,0,1.291-.56l6.045-6.467,6.045,6.467a1.766,1.766,0,0,0,1.291.56h1.906V272.232Z" transform="translate(-412.378 -52.103)" fill="#ff7900"/>
    <path id="路径_27271" data-name="路径 27271" d="M381.034,279.27H370.475a.863.863,0,0,1-.881-.881v-2.231a.863.863,0,0,1,.881-.881h11.477a1.749,1.749,0,0,0,1.472-.79,8.806,8.806,0,0,0,1.038-2.255H370.475c-3.619,0-3.619,3.147-3.619,3.147v3.473s0,3.147,3.619,3.147h10.559a.863.863,0,0,1,.881.881v2.6a.863.863,0,0,1-.881.881H369.366a1.748,1.748,0,0,0-1.472.79,8.8,8.8,0,0,0-1.038,2.255h14.178c3.619,0,3.619-3.147,3.619-3.147v-3.843s0-3.147-3.619-3.147" transform="translate(0 -52.104)" fill="#ff7900"/>
    <path id="路径_27272" data-name="路径 27272" d="M565.174,272.232h-2.923v13L550.686,272.8a1.766,1.766,0,0,0-1.294-.563h-2.054v17.175h2.923v-13l11.583,12.434a1.766,1.766,0,0,0,1.293.562h2.037Z" transform="translate(-138.11 -52.103)" fill="#ff7900"/>
    <path id="路径_27273" data-name="路径 27273" d="M472.223,272.232v14.274c0,.212-.809.576-5.863.576s-5.863-.363-5.863-.576V272.232h-2.923v15.494c.9,2.044,7.365,1.927,8.786,1.927s7.89.117,8.786-1.927V272.232Z" transform="translate(-69.42 -52.103)" fill="#ff7900"/>
    <path id="路径_27274" data-name="路径 27274" d="M744.695,282c1.106-.484,1.042-4.115,1.042-4.883s.064-4.4-1.042-4.884H729.108v3.045h13.574c.135,0,.325.512.325,1.839,0,1.641-.192,2.154-.325,2.154H729.108v10.137h2.766V282h3.946l6.89,6.89a1.768,1.768,0,0,0,1.249.518h3.475L740.026,282Z" transform="translate(-277.205 -52.103)" fill="#ff7900"/>
    <path id="路径_27275" data-name="路径 27275" d="M823.788,271.183c-1.421,0-8.022-.118-8.917,1.927V282a8.449,8.449,0,0,0,2.192-1.013,1.6,1.6,0,0,0,.731-1.34v-5.255c0-.32,1.052-.64,5.994-.64s5.994.32,5.994.64v3.187a8.477,8.477,0,0,0,2.192-1.014,1.6,1.6,0,0,0,.731-1.34V273.11c-.9-2.045-7.5-1.927-8.917-1.927" transform="translate(-342.833 -51.299)" fill="#ff7900"/>
    <path id="路径_27276" data-name="路径 27276" d="M823.787,311.171c1.421,0,8.022.118,8.917-1.927v-8.891a8.442,8.442,0,0,0-2.192,1.014,1.6,1.6,0,0,0-.731,1.34v5.255c0,.32-1.052.64-5.994.64s-5.994-.319-5.994-.64v-3.187a8.47,8.47,0,0,0-2.192,1.014,1.6,1.6,0,0,0-.732,1.34v2.116c.9,2.045,7.5,1.927,8.917,1.927" transform="translate(-342.832 -73.622)" fill="#ff7900"/>
    <path id="路径_27277" data-name="路径 27277" d="M654.977,279.27h-7.215a1.591,1.591,0,0,0-1.34.732,7.883,7.883,0,0,0-.915,2h7.375c.182,0,.406.2.406,2.339,0,1.821-.228,2.024-.406,2.024H641.542c-.134,0-.553-.575-.553-5.543s.419-5.543.553-5.543h11.777a1.748,1.748,0,0,0,1.472-.79,8.808,8.808,0,0,0,1.038-2.255H639.99c-1.873.821-1.765,7.286-1.765,8.587s-.108,7.767,1.765,8.587h14.987c1.106-.485,1.042-4.3,1.042-5.069s.064-4.585-1.042-5.069" transform="translate(-207.657 -52.104)" fill="#ff7900"/>
  </g>
</svg>
