<?xml version="1.0" encoding="utf-8"?>
<!-- Generator: Adobe Illustrator 23.0.0, SVG Export Plug-In . SVG Version: 6.00 Build 0)  -->
<svg version="1.1" id="图层_1" xmlns="http://www.w3.org/2000/svg" xmlns:xlink="http://www.w3.org/1999/xlink" x="0px" y="0px"
	 viewBox="0 0 25.8 26.2" style="enable-background:new 0 0 25.8 26.2;" xml:space="preserve">
<style type="text/css">
	.st0{fill:#FF7900;}
</style>
<g id="黄" transform="translate(127 -126)">
	<g id="组_29282" transform="translate(-32.182 -33.795)">
		<path id="路径_30006" class="st0" d="M-81.5,163.8c-1.5,0-8.4-0.1-9.3,2v9.3c0.8-0.2,1.6-0.6,2.3-1.1c0.5-0.3,0.8-0.8,0.8-1.4
			v-5.5c0-0.3,1.1-0.7,6.2-0.7s6.2,0.3,6.2,0.7v3.3c0.8-0.2,1.6-0.6,2.3-1.1c0.5-0.3,0.8-0.8,0.8-1.4v-2.2
			C-73.2,163.7-80.1,163.8-81.5,163.8"/>
		<path id="路径_30007" class="st0" d="M-81.5,182.2c1.5,0,8.4,0.1,9.3-2v-9.3c-0.8,0.2-1.6,0.6-2.3,1.1c-0.5,0.3-0.8,0.8-0.8,1.4
			v5.5c0,0.3-1.1,0.7-6.2,0.7s-6.2-0.3-6.2-0.7v-3.3c-0.8,0.2-1.6,0.6-2.3,1.1c-0.5,0.3-0.8,0.8-0.8,1.4v2.2
			C-89.9,182.3-83,182.2-81.5,182.2"/>
	</g>
</g>
</svg>
