<?xml version="1.0" encoding="utf-8"?>
<!-- Generator: Adobe Illustrator 23.0.0, SVG Export Plug-In . SVG Version: 6.00 Build 0)  -->
<svg version="1.1" id="图层_1" xmlns="http://www.w3.org/2000/svg" xmlns:xlink="http://www.w3.org/1999/xlink" x="0px" y="0px"
	 viewBox="0 0 1920 1080" style="enable-background:new 0 0 1920 1080;" xml:space="preserve">
<style type="text/css">
	.st0{fill:#FF7B05;}
	.st1{fill:#FF7900;}
	.st2{fill:#FF7A02;}
	.st3{fill:#FF7A01;}
	.st4{fill:#FF7901;}
</style>
<g>
	<path class="st0" d="M55.6,989.8c6,0.7,8.9,3.3,9.5,8.7c0.2,2,0.1,4,0.1,5.9c0,25.1,0,81.1,0,81.1H55.1L55.6,989.8z"/>
	<path class="st1" d="M557,864.5c-1.3,0-2.7,0.1-4-0.1c-2.5-0.5-3.7-2.3-3.7-4.7c0-2.2,1.2-3.8,3.4-4.3c1.5-0.3,3.1-0.3,4.6-0.3
		c16.3,0,32.6,0,48.9,0c0.7,0,1.3,0,2,0c3.9,0.3,5.8,1.9,5.7,4.9c-0.1,2.8-2.1,4.5-6,4.5C599.1,864.5,565.1,864.5,557,864.5z"/>
	<path class="st1" d="M577.1,890.9c-1.5,0-3.1,0.1-4.6-0.2c-2.4-0.6-3.6-2.3-3.5-4.9c0.1-2.3,1.1-3.8,3.3-4.3
		c1.7-0.3,3.5-0.4,5.2-0.4c15.6,0,31.2,0,46.8,0c1.5,0,3.1,0,4.6,0.2c2.9,0.3,4.4,2.3,4.2,5c-0.1,2.7-1.7,4.5-4.6,4.6
		C625.4,890.9,585,890.9,577.1,890.9z"/>
	<path class="st2" d="M1738.4,710.3c0,4.2,0.2,8.3,0,12.5c-0.2,3.9-2,5.7-5.1,5.4c-3.3-0.2-4.5-2.3-4.5-5.3c0-8.3,0-16.6,0-24.9
		c0-3,1.1-5.1,4.4-5.5c3-0.3,5,1.6,5.2,5.3C1738.5,702,1738.4,706.1,1738.4,710.3z"/>
	<path class="st3" d="M1728.8,825.2c0-4.2-0.2-8.3,0-12.5c0.2-3.4,1.9-5.1,4.7-5.1c2.7,0,4.7,1.7,4.8,5.1c0.2,8.5,0.2,17.1,0,25.6
		c-0.1,3.3-2.1,5.1-4.8,5.1c-2.7,0-4.6-1.8-4.7-5.1C1728.6,834,1728.8,829.6,1728.8,825.2z"/>
	<path class="st2" d="M1728.7,767.5c0-3.9-0.1-7.9,0-11.8c0.1-3.9,1.9-5.7,4.8-5.6c2.9,0.1,4.7,2,4.7,5.9c0.1,8.1,0.1,16.2,0,24.3
		c-0.1,3.7-2.1,5.8-4.9,5.8c-2.8,0-4.5-2.1-4.6-6C1728.6,775.8,1728.7,771.7,1728.7,767.5z"/>
	<path class="st4" d="M1784.6,940.9c0,4.2,0.1,8.3,0,12.5c-0.1,3-1.6,5-4.7,5.3c-2.9,0.2-4.8-1.9-4.9-5.6c-0.1-8.1-0.1-16.2,0-24.3
		c0.1-3.9,1.8-5.9,4.6-6c2.8-0.1,4.8,2,5,5.7C1784.8,932.5,1784.7,936.7,1784.6,940.9C1784.7,940.9,1784.6,940.9,1784.6,940.9z"/>
	<path class="st3" d="M1689.4,770.8c0,4,0.1,7.9,0,11.9c-0.2,3.8-2,5.7-5.1,5.5c-3.3-0.2-4.5-2.4-4.5-5.4c0-8.4-0.1-16.7,0.1-25.1
		c0.1-3.2,2.2-5.4,4.7-5.4c2.5,0,4.7,2.2,4.8,5.3C1689.5,762,1689.4,766.4,1689.4,770.8z"/>
	<path class="st3" d="M1689.4,827.1c0,4.2,0.1,8.3,0,12.5c-0.2,3.7-2.1,5.7-5.1,5.4c-3.2-0.3-4.5-2.3-4.5-5.4c0-8.3-0.1-16.6,0-24.9
		c0.1-3.5,2.4-6,5-5.6c3,0.5,4.5,2.5,4.5,5.5C1689.4,818.8,1689.4,823,1689.4,827.1z"/>
	<path class="st4" d="M1784.7,827c0,3.9,0.1,7.9,0,11.8c-0.2,4.3-1.9,6.4-5,6.2c-2.9-0.1-4.5-2-4.6-6c-0.1-8.1-0.1-16.2,0-24.3
		c0.1-3.6,2.3-6,4.9-5.7c3,0.4,4.6,2.4,4.7,5.4C1784.7,818.7,1784.7,822.9,1784.7,827C1784.7,827,1784.7,827,1784.7,827z"/>
	<path class="st3" d="M1679.8,883.8c0-4.2,0-8.3,0-12.5c0-3,1.4-5.1,4.5-5.5c2.7-0.3,4.9,2,5,5.6c0.2,8.3,0,16.6,0,25
		c0,3.1-1.4,5-4.6,5.3c-3,0.3-4.8-1.7-5-5.5C1679.7,892.2,1679.8,888,1679.8,883.8z"/>
	<path class="st4" d="M1738.4,883.6c0,4,0.1,7.9,0,11.9c-0.2,3.6-2.4,6-5.1,5.6c-3.1-0.4-4.5-2.4-4.5-5.5c0-8.4-0.1-16.7,0.1-25.1
		c0.1-3.5,1.9-5.2,4.7-5.2c2.8,0,4.7,1.7,4.8,5.1C1738.5,874.8,1738.4,879.2,1738.4,883.6C1738.4,883.6,1738.4,883.6,1738.4,883.6z"
		/>
	<path class="st4" d="M1784.6,884.2c0,4.2,0.2,8.3-0.1,12.5c-0.2,3.4-2.1,5.2-4.7,5.2c-2.7,0-4.7-1.8-4.7-5.1
		c-0.2-8.5-0.2-17.1,0-25.6c0.1-3.2,2.2-5.3,4.7-5.3c2.5,0,4.7,2,4.8,5.2C1784.8,875.4,1784.6,879.8,1784.6,884.2z"/>
	<path class="st3" d="M1689.4,940.8c0,4.2,0,8.3,0,12.5c0,3.1-1.5,5-4.6,5.3c-2.9,0.3-4.9-1.9-4.9-5.6c-0.1-8.1-0.1-16.2,0-24.3
		c0.1-3.9,1.8-5.9,4.5-6.1c3-0.1,4.9,2.1,5,6.3C1689.5,932.9,1689.4,936.9,1689.4,940.8C1689.4,940.8,1689.4,940.8,1689.4,940.8z"/>
	<path class="st4" d="M1738.4,940.9c0,3.9,0.1,7.9,0,11.8c-0.1,3.8-1.9,5.9-4.7,5.9c-2.9,0.1-4.8-1.9-4.9-5.7
		c-0.1-8.1-0.1-16.2,0-24.3c0.1-3.9,1.8-5.9,4.6-6c2.8-0.1,4.8,2,4.9,5.7C1738.5,932.6,1738.4,936.7,1738.4,940.9z"/>
	<path class="st3" d="M1023.4,960.3c-1.5-2.7-4-4.1-7-4.5c-1.7-0.2-3.5-0.1-5.3-0.1c-19.8,0-39.7,0-59.5,0
		c-8.3,0-13.1-4.3-14.2-12.5c-0.3-2-0.2-4-0.2-5.9c-0.1-15.4-0.3-30.9-0.3-46.3c0-4.1-1-7.7-3.7-10.9
		c-17.3-20.5-34.5-41.2-51.8-61.7c-5.5-6.5-11.8-6.4-17.1,0.3c-15.9,20.5-31.7,41.2-47.6,61.8c-2.3,3-3.1,6.2-3,9.8
		c0.1,13.2,0,26.4,0,39.7c0,5.3,0.1,10.6,0,15.9c-0.2,7.1-3.1,9.9-10.2,9.8c-3.5,0-7.1,0-10.6,0c-34.6,0-69.2,0-103.8,0
		c-12.3,0-21.2-6.7-24.1-17.7c-0.9-3.7-0.4-7.5-0.7-11.2l0-4.6c0,0,25.6,0.1,36.2,0c3.3,0,6.6,0.1,9.9-0.2c7.9-0.7,11.1-8,6.6-14.4
		c-0.9-1.2-2-2.4-3-3.5c-19.6-22.9-39.3-45.8-58.7-68.9c-4.1-4.9-8.5-6.7-14.8-6.7c-57.7,0.2-115.5,0.1-173.2,0.1
		c-2,0-4-0.1-5.9,0.2c-5.2,0.8-8,4.5-7.5,9.8c0.2,2.7,1.8,4.4,3.3,6.3c19.3,23.8,38.6,47.5,57.8,71.4c3.4,4.2,7.1,6,12.4,6
		c12.3-0.2,48.4,0,48.4,0l0,12.6c-1.1,11.8-9.6,20.2-21.5,21.1c-2.4,0.2-4.8,0.2-7.3,0.2c-58.8,0-117.7,0-176.5,0l-6.7,0
		c1.7-3.2,4.8-8.9,5.8-12.3l0.8,0c0,0,10.4,0.1,14.4,0c10.6-0.4,17.7-7.5,18-18c0.1-2.6,0.1-5.3,0-7.9c-0.3-12.6-7.7-22.1-20-25.6
		c-6.1-1.7-12.3-3.5-18.4-5.1c-13.6-3.4-26.2-8.6-37.7-16.9c-6-4.4-12.6-8-19.1-11.8c-8.2-4.9-17.1-8-26.6-9.5
		c-10.5-1.6-21-2.6-31.6-2.3c-17.3,0.4-33.5,4.4-48.1,14.1c-11.6,7.7-22.8,15.8-33.4,24.8c-7.3,6.2-11.9,14-14.3,23.2
		c-1.4,5.5-1.2,10.9-1.2,16.4c0.1,11.3,7.2,18.4,18.6,18.7c7.9,0.1,23.8,0,23.8,0l5,0c0,0-0.7-5.2-0.8-7.4
		c-0.1-10.9,8.8-19.8,19.6-19.9c10.8,0,19.6,8.9,19.8,19.8c0.2,9.8-8.7,19.8-21.2,19.8c-42.3-0.3-84.6-0.1-126.9-0.3
		c-14.3-0.1-24.9-10.9-25.2-25.1c0-1.8,0-3.5,0-5.3c0-307.9,0-615.8,0-923.7c0-2.4,0.1-4.8,0.2-7.3c-3.5,0-7.1,0-10.6,0
		c0.1,2,0.2,3.9,0.2,5.9c0,307.4,0,614.9,0,922.3c0,2.9-0.1,5.7,0,8.6c0.2,8.7,3.2,16.3,9.1,22.8c7.6,8.4,17,11.8,28.3,11.8
		c37.9-0.2,75.8-0.1,113.7,0c2.6,0,5.3,0.1,7.9,0.3c14.3,1.4,26.3-5,32.3-18c1.7-3.8,1.9-4.4,1.9-4.4c20.3,0.1,66.4,0,66.4,0l6.6,0
		c-0.2-2.1-0.6-4.8-0.7-7c-0.3-11.3,9.4-20.9,20.6-20.2c11.6,0.7,18.9,10.1,18.9,19.3c0,10.5-8.8,19.5-19.2,19.9
		c-4.8,0.2-9.7-0.2-14.5,0.2c-6.4,0.4-9.4,4.1-9.3,10.4h4.6c0,0,154.7,0,232.1,0c17.5,0,32-14.1,32.8-31.5c0.1-3.1,0.2-6.2,0.1-9.3
		l0-3.4c0,0,12.4,0,16.8-0.2c4.5-0.3,7.6-2.7,8.4-6.2c0.5-2.1,0-3.5-2.5-3.4c-1.5,0.1-3.1,0-4.6,0c-24.9,0-74.7,0-74.7,0l-4.7,0
		l-17.9-21.3l37.6,0c0,0,3.6,0.2,5.3-0.2c2.4-0.5,3.6-2.2,3.6-4.8c-0.1-2.3-1-3.9-3.2-4.3c-1.9-0.4-3.9-0.4-5.9-0.4
		c-13.4,0-40.3,0-40.3,0l-4.6,0c0,0-9.2-10.9-13.7-16.6c3.5,0,5.6,0,7.8,0c10.8,0,21.6,0,32.4,0c1.5,0,3.1,0.1,4.6-0.1
		c2.5-0.4,3.9-2.3,3.9-4.6c0-2.3-1.3-4.2-3.9-4.6c-1.7-0.2-3.5-0.1-5.3-0.1c-14.3,0-43,0-43,0l-3.8,0l-14.2-17h7.7
		c0,0,51.6,0,77.4,0c30,0,95.4,0,95.4,0l13.9,17c-10.5,0-20.2,0-29.8,0c-1.8,0-3.6-0.1-5.3,0.2c-2.5,0.4-3.8,2.3-3.8,4.7
		c0.1,2.4,1.4,4.2,4,4.5c1.5,0.2,3.1,0.1,4.6,0.1c11.7,0,35,0,35,0l4,0l13.2,16.6l-6.2,0c0,0-16.7,0-25.1,0c-1.8,0-3.5,0.1-5.2,0.4
		c-2.2,0.4-3.4,2-3.5,4.2c-0.1,2.5,1.1,4.3,3.5,4.9c1.5,0.4,3.1,0.2,4.6,0.2c7.7,0,41.4,0.8,41.4,0.8l17.2,20.5c0,0-38.3,0-57.3,0
		c-5.1,0-10.1,0-15.2,0c-3.7,0-6.9,1.3-8.9,4.7c-2,3.3-1.3,4.8,2.5,4.9c7,0.2,25.4,0.1,25.4,0.1l0,4.2c-0.2,4.2-0.3,8.4,0.6,12.5
		c3.3,16.3,16.8,27.2,34.2,27.4c17.4,0.2,34.8,0,52.2,0c20.7,0,41.4-0.1,62.1,0c12.3,0.1,21.1-8.7,20.6-20.6
		c-0.6-16.7-0.1-33.5-0.2-50.2c0-4.9,1.2-8.9,4.2-12.8c14.1-18.1,42-54.4,42-54.4l3.1-4c0,0,34.9,40.8,51.5,60.5c2,2.4,2.3,5,2.4,8
		c0.9,16.3,0.8,32.6,0.9,48.9c0.1,14.1,9.2,23.6,23.3,24.3c0.2,0,0.4,0,0.7,0c22.9,0,45.8,0,68.8,0
		C1024.5,966,1025.6,964,1023.4,960.3z M229.2,859.2c19.9-4.3,39.7-3,59.4,1.7c1.7,0.4,3.3,1.1,4.9,1.8c13.9,6.1,26,15,38.4,24.3
		c-2.1,0-4.2,0-6.2,0c-30.4,0-60.7-0.3-91.1,0.2c-13.4,0.2-22.3-4.9-27.6-17.8C214,864.6,221.2,861,229.2,859.2z M339.3,906.4
		c-13,0.4-24.1,8.9-27.9,21.4c-1.6,5.4-1,5.5-1,5.5l-62,0.1c0,0,0.1-0.6-0.8-4.6c-3.2-13.5-15.2-22.4-29-22.3
		c-13.5,0.1-25.3,8.9-28.6,22.1c-0.9,3.8-0.5,4.6-0.5,4.6l-18,0.3c-6.1,0.4-9-3.9-9.1-8.9c-0.4-13.3,3.4-24.7,14.3-33.1
		c6.9-5.4,13.7-11,21.8-16.2c8,17.5,21.7,22.8,39.5,22.5c39.9-0.6,79.7-0.1,119.6-0.2c9,0,17.3,2.9,25.6,5.7c5.3,1.8,8.5,6.3,9.1,12
		c0.4,3.7,0.4,7.5,0.1,11.2c-0.3,4.4-2.7,6.6-7.2,6.9l-5.9,0h-8.8c-0.4-3.3-1.2-5.3-2.1-7.7C363.7,913.7,352.1,906,339.3,906.4z"/>
	<path class="st1" d="M1849.3,954.1c-2.9,0-5.8,0-8.6-0.5c-7.7-1.4-12.7-7.4-12.9-15.3c-0.1-2.4,0-4.8,0-7.3c0-50.9,0-101.8,0-152.7
		c0-2,0.1-4-0.1-5.9c-0.8-9.7-6.6-15-16.5-15.1c-9,0-18.1,0-27.1,0c-11.1,0-11.8-0.7-11.8-12.1c0-6.2,0-12.3,0-18.5
		c0-15.6,0.1-31.3,0-46.9c-0.1-11-6.9-17.6-17.8-17.7c-13.4-0.1-26.9-0.1-40.3,0c-10.7,0.1-17.1,6.6-17.2,17.4
		c-0.1,10.6,0,21.2-0.1,31.7c-0.1,7-2.2,9.1-9.1,9.1c-11,0.1-22-0.1-33.1,0c-7.4,0.1-13.5,4.6-15.4,11.3c-0.8,2.6-0.5,5.3-0.5,7.9
		c0,61.9-0.2,123.9,0.1,185.8c0.1,16.3-10.7,28.2-28,27.8c-25.3-0.6-50.7-0.3-76-0.4c-15.2-0.1-30.4-0.1-45.6-0.2
		c-9.6-0.1-11.8-2.2-11.9-11.6c0-6-0.2-24.4-0.2-24.4l6,0c14.5-1.1,22.7-13.2,18.4-27.1c-2.4-7.8-4.7-15.6-7.1-23.4
		c-6.1-20.4-12.3-40.9-18.4-61.3c-1.4-4.7-3.4-9-7-12.5c-10.3-10.1-31.9-8.4-37.8,9.3c-2.5,7.5-4.1,15.3-6.1,22.9
		c-5.7,22.1-11.5,44.3-17.2,66.4c-3.3,13,5.1,24.6,18.5,25.6c2,0.1,10.2,0,10.2,0l0,4.2c0,0,0.1,16.3-0.1,24.5
		c-0.2,6.3-4.3,10.1-10.4,10.6c-1.1,0.1-2.2,0-3.3,0c-50.9,0-101.8,0.1-152.7,0.1c-1.5,0-3.1,0-4.6-0.1c-7.3-0.7-12.5-6.1-13-13.4
		c-0.1-2,0-4,0-5.9c0-50.5,0-100.9,0-151.4c0-16.1,0-52.8,0-52.8h4.3c0,0,20.7,0.7,31,1c28,0.6,56,1.2,83.9,1.7
		c7.5,0.1,13.9-5,15.5-11.9c1.6-6.7-1.6-13.8-8-17.3c-2.1-1.2-4.4-1.9-6.7-2.7c-37.4-12.8-112.4-38.2-112.4-38.2l-6.9-2.9
		c0,0-18.4-74.8-26.8-108.7c-0.5-2.1-1.2-4.3-2.2-6.2c-3.9-7.5-12.7-11.3-20.7-9.2c-7.4,1.9-11.8,8.3-11.8,17c0,2,0,4,0.2,5.9
		c1.2,15.1,2.5,30.2,3.6,45.4c1.6,21.3,4.9,69.2,4.9,69.2l-3.5,3.9c0,0-35.4,37.5-53,56.3c-6.9,7.4-13.9,14.8-20.8,22.1
		c-4.2,4.5-6.2,9.6-4.5,15.7c3.3,11.7,16.2,14.8,24.9,9.5c19.4-11.7,58.9-34,58.9-34l5.6-3.3l0,5.9c0,0,0,125.2,0,187.8
		c0,1.1,0.1,2.2,0,3.3c-0.6,7.5-6.2,13-13.9,13.2c-3.1,0.1-6.2,0-9.3,0c-37,0-74,0-111.1,0c-13.3,0-20.5-7.1-20.5-20.2
		c0-16.1-0.1-32.2,0.1-48.3c0.1-4.7-1.2-8.4-4-12.2c-14.9-20.2-29.8-40.4-44.3-60.9c-3.9-5.4-8.3-7.7-14.9-7.7
		c-23.6,0.3-47.2,0.1-70.7,0.1c-2.9,0-5.7-0.1-8.6,0.2c-4,0.5-7,2.7-8.3,6.6c-1.4,4.2,0.2,7.7,2.9,10.9
		c17.7,21.9,35.5,43.8,53.1,65.8c2.7,3.3,5.8,5,10.2,5c18.3-0.1,36.6,0,54.9-0.1c1.4,0,3.3,0.7,4.1-1c0.9-2-0.1-3.8-1.3-5.5
		c-2.5-3.2-6-3.4-9.5-3.4c-14.5,0-43.6,0.1-43.6,0.1l-4.7,0l-56.2-68.4l3.9,0l78.3-0.1c0,0,31.1,43.2,45.5,62.7
		c2.5,3.4,3.6,6.8,3.6,11c-0.1,17.2,0,34.4-0.1,51.6c-0.1,9.1,4.3,15.4,11.7,20.1c4.8,3.1,10.2,3.9,15.8,3.9c40.1,0,80.2,0,120.3,0
		c1.8,0,3.5-0.2,5.3-0.4c12.8-1.8,21.5-11.5,21.5-24.3c0.1-65.5,0.1-130.9,0-196.4c0-9.8-6.3-13.2-15-8.4c-1,0.5-1.9,1.1-2.8,1.7
		c-20,11.6-40,23.1-60,34.7c-5.4,3.1-8.1,3.2-10.6,0.2c-2.6-2.9-2-5.7,2.3-10.2c24.5-26,79-83.6,79-83.6l-0.5-8.3l-4.1-52.6
		l-2.3-27.6c0,0-1.8-23.2-2.7-34.9c-0.3-4.1,2.2-7.6,5.9-8.5c3.5-0.9,6.9,1.4,8.5,5.6c0.5,1.2,0.7,2.5,1.1,3.8
		c8.8,35.9,27.7,112.9,27.7,112.9l5.6,2.2c0,0,79.1,26.8,118.6,40.3c1.7,0.6,3.4,1,5,1.8c2.6,1.3,4,3.5,3.4,6.5
		c-0.5,2.8-2.6,4-5.2,4.2c-2.2,0.2-6.6,0.1-6.6,0.1l-95.2-2c0,0-9.7-0.4-14.5-0.5c-2.2,0-3.2-0.9-3.1-3.2c0.1-2.4,0.2-4.9,0-7.3
		c-0.7-7.5-4-13.5-11.1-16.7c-6.3-2.8-12.5-2.3-18.2,1.8c-6.9,4.9-8.7,12-7.4,19.9c1.3,7.3,5.9,12.1,13.1,14.3
		c2.8,0.8,5.6,0.9,8.5,1c5,0.1,5-0.3,5,5.2c0,1.5,0,3.1,0,4.6c0,65.7,0,131.3,0,197c0,2.4,0,4.9,0.4,7.2c2.5,12.4,12.4,20,25.8,20
		c38.1,0,76.3,0,114.4,0c13.7,0,27.3,0,41-0.1c12.7-0.2,21.7-7.5,22.6-19.4c0.8-10.1,0.5-20.3,0.1-30.4c-0.2-6.1-4.3-9.3-10.5-9.5
		c-2.2-0.1-4.4,0-6.6,0c-9.8-0.2-13.9-5.6-11.4-15.2c3.5-13.6,7-27.3,10.5-40.9c3.8-14.9,7.7-29.8,11.6-44.7
		c2.6-10,13.8-12.2,20.6-7.5c3.3,2.3,4.6,5.8,5.7,9.4c8.5,28.2,16.9,56.5,25.6,84.6c2.4,7.8-3.3,14.7-11.4,14.3
		c-2.4-0.1-3.7-0.6-3.5-3.3c0.2-2.8,0-5.7-0.8-8.5c-2.4-8.3-8.8-13.1-17.1-12.6c-7.8,0.5-14,6.4-15,14.2c-1.1,8.7,3.3,16.2,11,18.9
		c2.1,0.7,11.5,1.1,11.5,1.1l0.2,4.8c0.1,7.5-0.1,15,0,22.5c0.1,11.4,7.3,18.4,18.7,18.4c43,0,85.9,0,128.9,0
		c9.3,0,17.1-3.5,23.6-10c7.3-7.3,9.8-16.3,9.7-26.5c-0.1-60.8,0-121.6,0-182.5c0-2.2-0.1-4.4,0.1-6.6c0.3-4.3,2.2-6.3,6.5-6.7
		c1.3-0.1,2.6,0,4,0c8.8,0,17.6,0,26.4,0c1.8,0,3.5,0,5.3-0.1c9.5-0.6,15.5-6.6,15.7-16.2c0.2-11,0-22,0.1-33.1
		c0.1-6.5,2.4-9.1,8.5-9.1c13-0.1,26-0.1,39,0c6,0.1,8.2,2.5,8.2,8.6c0.1,13,0,26,0,39c0,9.9,0,19.8,0,29.8
		c0.1,11.7,7.9,18.5,18.2,17.9c9.9-0.6,19.8-0.2,29.7-0.1c6,0.1,7.4,1.6,7.6,7.4c0,1.5,0,3.1,0,4.6c0,52.2,0,104.5,0,156.7
		c0,6.9,1.6,13.1,6,18.4c5.4,6.5,12.6,9.1,21,9.1c24-0.1,48,0,72.1,0c1.7,0,3.5,0.3,5.2-0.6c0-2.6,0-5.3,0-7.9
		C1897.8,954.3,1873.5,954.2,1849.3,954.1z M1242.5,715.8c0,1.3,0.1,2.7,0,4c-0.1,0.6-0.5,1.6-0.8,1.6c-3.9,0.5-7.9,1.1-11.6-0.8
		c-3.5-1.8-4.8-5.1-4.5-8.9c0.3-4.6,3.9-8,8.1-8.1c4-0.1,7.5,2.6,8.5,6.9c0.4,1.7,0.3,3.5,0.5,5.2
		C1242.6,715.8,1242.5,715.8,1242.5,715.8z M1462,906.6c-3-0.2-5.5-1-7.1-3.9c-1.5-2.9-1-5.6,0.8-8c1.5-2.1,3.8-3,6.4-2.3
		c2.7,0.8,4.4,2.8,5,5.6c0.3,1.3,0.2,2.6,0.2,3.1C1467.3,906.7,1467,906.9,1462,906.6z"/>
	<path class="st4" d="M918.1,688.3c-3.4-1.2-5.2-2.5-6-6.3c-3.4-14.8-15.3-24.3-29.6-24.3c-14.6,0-26.8,9.9-29.9,24.8
		c-0.7,3.3-2,4.5-5.1,5.5c-12.6,4-20.9,14.9-21.4,27.2c-0.7,17.5,11.9,31.4,29.6,32.2c8.8,0.4,17.6,0.1,26.4,0.1
		c9.2,0,18.5,0.3,27.7-0.1c14.8-0.7,26.7-11.5,28.6-25.5C940.5,706.6,932.6,693.2,918.1,688.3z M908.9,738.3
		c-17.8,0.3-35.7,0.4-53.5,0c-11.3-0.3-19.9-9.5-20.2-20.5c-0.3-11.3,7.4-20.3,18.7-21.9c2.4-0.3,4.8-0.4,7.4-0.7c0-2.6,0-5,0-7.3
		c0.1-11.8,9.2-20.9,20.9-21.1c11.8-0.2,21.4,9.2,21.5,21.2c0,0.2,0,0.4,0,0.7c0,6.3,0,6.3,6.4,7c10.5,1.2,19.6,8.8,19.7,21.9
		C929.8,728.8,920.4,738.1,908.9,738.3z"/>
	<path class="st3" d="M1027,612.1c-3.3-1.3-4.1-3.3-5-6.1c-3.3-10.1-12.4-16.7-22.3-16.4c-10.4,0.3-18.9,6.7-21.8,17
		c-0.8,2.9-2.2,4.3-4.9,5.4c-10.3,4.3-16.4,14.9-14.5,24.8c2.2,11.7,11.1,19.5,23,19.9c6.2,0.2,12.3,0,18.5,0s12.3,0.2,18.5,0
		c11.5-0.4,20.9-8.1,22.7-18.5C1043.3,626.7,1038,616.5,1027,612.1z M1025.7,645.4c-2.3,1.3-4.8,2.1-7.5,2.1
		c-12.1,0-24.2,0.2-36.3-0.1c-8.3-0.2-14.5-6.5-14.4-14.2c0.1-7.5,5.9-13.2,14-13.6c1.5-0.1,3,0,5.1,0c-0.3-2.9-0.7-4.8-0.6-6.8
		c0.1-7.6,6.4-14,13.8-14.1c7.5-0.1,13.6,5.9,13.9,13.8c0,0.4,0,0.9,0,1.3c0,5.4,0,5.4,5.5,5.8c6.5,0.5,11.7,4.6,12.9,10.4
		C1033.4,636.4,1031,642.4,1025.7,645.4z"/>
</g>
</svg>
